# MagicaVoxel @ Ephtracy

# group
o 

# material
mtllib Bed.mtl
usemtl palette

# normals
vn -1 0 0
vn 1 0 0
vn 0 0 1
vn 0 0 -1
vn 0 -1 0
vn 0 1 0

# texcoords
vt 0.373047 0.5
vt 0.869141 0.5
vt 0.962891 0.5
vt 0.990234 0.5

# verts
v -3.1 0 1.6
v -3.1 0 -1.6
v -3.1 0.2 1.4
v -3.1 0.2 -1.4
v -3.1 0.8 1.4
v -3.1 0.8 -1.4
v -3.1 1.1 1.6
v -3.1 1.1 -1.6
v -3 0.2 1.4
v -3 0.2 -1.4
v -3 0.8 1.4
v -3 0.8 -1.4
v -3 1.1 1.5
v -3 1.1 -1.5
v -3 1.2 1.5
v -3 1.2 -1.5
v 1.8 1.2 1.5
v 1.8 1.2 -1.5
v 1.8 1.4 1.5
v 1.8 1.4 -1.5
v 2.9 0.2 1.6
v 2.9 0.2 1.5
v 2.9 0.2 -1.5
v 2.9 0.2 -1.6
v 2.9 0.8 1.6
v 2.9 0.8 1.5
v 2.9 0.8 -1.5
v 2.9 0.8 -1.6
v 2.9 1 1.4
v 2.9 1 -1.4
v 2.9 1.1 1.4
v 2.9 1.1 -1.4
v -2.9 0.2 1.6
v -2.9 0.2 1.5
v -2.9 0.2 -1.5
v -2.9 0.2 -1.6
v -2.9 0.8 1.6
v -2.9 0.8 1.5
v -2.9 0.8 -1.5
v -2.9 0.8 -1.6
v -2.9 1 1.4
v -2.9 1 -1.4
v -2.9 1.1 1.4
v -2.9 1.1 -1.4
v 3 0.2 1.4
v 3 0.2 -1.4
v 3 0.8 1.4
v 3 0.8 -1.4
v 3 1.1 1.5
v 3 1.1 -1.5
v 3 1.4 1.5
v 3 1.4 -1.5
v 3.1 0 1.6
v 3.1 0 -1.6
v 3.1 0.2 1.4
v 3.1 0.2 -1.4
v 3.1 0.8 1.4
v 3.1 0.8 -1.4
v 3.1 1.1 1.6
v 3.1 1.1 -1.6
v -3.1 0 1.6
v -3.1 1.1 1.6
v -2.9 0.2 1.6
v -2.9 0.8 1.6
v 2.9 0.2 1.6
v 2.9 0.8 1.6
v 3.1 0 1.6
v 3.1 1.1 1.6
v -3 1.1 1.5
v -3 1.2 1.5
v -2.9 0.2 1.5
v -2.9 0.8 1.5
v 1.8 1.1 1.5
v 1.8 1.2 1.5
v 1.8 1.4 1.5
v 2.9 0.2 1.5
v 2.9 0.8 1.5
v 3 1.1 1.5
v 3 1.4 1.5
v -3.1 0.2 -1.4
v -3.1 0.8 -1.4
v -3 0.2 -1.4
v -3 0.8 -1.4
v -2.9 1 -1.4
v -2.9 1.1 -1.4
v 1.8 1.1 -1.4
v 2.9 1 -1.4
v 2.9 1.1 -1.4
v 3 0.2 -1.4
v 3 0.8 -1.4
v 3.1 0.2 -1.4
v 3.1 0.8 -1.4
v -3.1 0.2 1.4
v -3.1 0.8 1.4
v -3 0.2 1.4
v -3 0.8 1.4
v -2.9 1 1.4
v -2.9 1.1 1.4
v 1.8 1.1 1.4
v 2.9 1 1.4
v 2.9 1.1 1.4
v 3 0.2 1.4
v 3 0.8 1.4
v 3.1 0.2 1.4
v 3.1 0.8 1.4
v -3 1.1 -1.5
v -3 1.2 -1.5
v -2.9 0.2 -1.5
v -2.9 0.8 -1.5
v 1.8 1.1 -1.5
v 1.8 1.2 -1.5
v 1.8 1.4 -1.5
v 2.9 0.2 -1.5
v 2.9 0.8 -1.5
v 3 1.1 -1.5
v 3 1.4 -1.5
v -3.1 0 -1.6
v -3.1 1.1 -1.6
v -2.9 0.2 -1.6
v -2.9 0.8 -1.6
v 2.9 0.2 -1.6
v 2.9 0.8 -1.6
v 3.1 0 -1.6
v 3.1 1.1 -1.6
v -3.1 0 1.6
v 3.1 0 1.6
v -3 0 1.5
v 3 0 1.5
v -3 0 -1.5
v 3 0 -1.5
v -3.1 0 -1.6
v 3.1 0 -1.6
v -2.9 0.8 1.6
v 2.9 0.8 1.6
v -2.9 0.8 1.5
v 2.9 0.8 1.5
v -3.1 0.8 1.4
v -3 0.8 1.4
v 3 0.8 1.4
v 3.1 0.8 1.4
v -3.1 0.8 -1.4
v -3 0.8 -1.4
v 3 0.8 -1.4
v 3.1 0.8 -1.4
v -2.9 0.8 -1.5
v 2.9 0.8 -1.5
v -2.9 0.8 -1.6
v 2.9 0.8 -1.6
v -2.9 1.1 1.4
v 1.8 1.1 1.4
v 2.9 1.1 1.4
v -2.9 1.1 -1.4
v 1.8 1.1 -1.4
v 2.9 1.1 -1.4
v -2.9 0.2 1.6
v 2.9 0.2 1.6
v -2.9 0.2 1.5
v 2.9 0.2 1.5
v -3.1 0.2 1.4
v -3 0.2 1.4
v 3 0.2 1.4
v 3.1 0.2 1.4
v -3.1 0.2 -1.4
v -3 0.2 -1.4
v 3 0.2 -1.4
v 3.1 0.2 -1.4
v -2.9 0.2 -1.5
v 2.9 0.2 -1.5
v -2.9 0.2 -1.6
v 2.9 0.2 -1.6
v -2.9 1 1.4
v 2.9 1 1.4
v -2.9 1 -1.4
v 2.9 1 -1.4
v -3.1 1.1 1.6
v 3.1 1.1 1.6
v -3 1.1 1.5
v 1.8 1.1 1.5
v 3 1.1 1.5
v -3 1.1 -1.5
v 1.8 1.1 -1.5
v 3 1.1 -1.5
v -3.1 1.1 -1.6
v 3.1 1.1 -1.6
v -3 1.2 1.5
v 1.8 1.2 1.5
v -3 1.2 -1.5
v 1.8 1.2 -1.5
v 1.8 1.4 1.5
v 3 1.4 1.5
v 1.8 1.4 -1.5
v 3 1.4 -1.5

# faces
f 3/4/1 2/4/1 1/4/1
f 4/4/1 2/4/1 3/4/1
f 5/4/1 3/4/1 1/4/1
f 6/4/1 2/4/1 4/4/1
f 7/4/1 5/4/1 1/4/1
f 7/4/1 6/4/1 5/4/1
f 8/4/1 2/4/1 6/4/1
f 8/4/1 6/4/1 7/4/1
f 11/1/1 10/1/1 9/1/1
f 12/1/1 10/1/1 11/1/1
f 15/2/1 14/2/1 13/2/1
f 16/2/1 14/2/1 15/2/1
f 19/3/1 18/3/1 17/3/1
f 20/3/1 18/3/1 19/3/1
f 25/4/1 22/4/1 21/4/1
f 26/4/1 22/4/1 25/4/1
f 27/4/1 24/4/1 23/4/1
f 28/4/1 24/4/1 27/4/1
f 31/4/1 30/4/1 29/4/1
f 32/4/1 30/4/1 31/4/1
f 33/4/2 34/4/2 37/4/2
f 37/4/2 34/4/2 38/4/2
f 35/4/2 36/4/2 39/4/2
f 39/4/2 36/4/2 40/4/2
f 41/4/2 42/4/2 43/4/2
f 43/4/2 42/4/2 44/4/2
f 45/1/2 46/1/2 47/1/2
f 47/1/2 46/1/2 48/1/2
f 49/3/2 50/3/2 51/3/2
f 51/3/2 50/3/2 52/3/2
f 53/4/2 54/4/2 55/4/2
f 55/4/2 54/4/2 56/4/2
f 53/4/2 55/4/2 57/4/2
f 56/4/2 54/4/2 58/4/2
f 53/4/2 57/4/2 59/4/2
f 57/4/2 58/4/2 59/4/2
f 58/4/2 54/4/2 60/4/2
f 59/4/2 58/4/2 60/4/2
f 63/4/3 62/4/3 61/4/3
f 64/4/3 62/4/3 63/4/3
f 65/4/3 63/4/3 61/4/3
f 66/4/3 62/4/3 64/4/3
f 67/4/3 65/4/3 61/4/3
f 67/4/3 66/4/3 65/4/3
f 68/4/3 62/4/3 66/4/3
f 68/4/3 66/4/3 67/4/3
f 73/2/3 70/2/3 69/2/3
f 74/2/3 70/2/3 73/2/3
f 76/1/3 72/1/3 71/1/3
f 77/1/3 72/1/3 76/1/3
f 78/3/3 75/3/3 74/3/3
f 78/3/3 74/3/3 73/3/3
f 79/3/3 75/3/3 78/3/3
f 82/4/3 81/4/3 80/4/3
f 83/4/3 81/4/3 82/4/3
f 86/4/3 85/4/3 84/4/3
f 87/4/3 86/4/3 84/4/3
f 88/4/3 86/4/3 87/4/3
f 91/4/3 90/4/3 89/4/3
f 92/4/3 90/4/3 91/4/3
f 93/4/4 94/4/4 95/4/4
f 95/4/4 94/4/4 96/4/4
f 97/4/4 98/4/4 99/4/4
f 97/4/4 99/4/4 100/4/4
f 100/4/4 99/4/4 101/4/4
f 102/4/4 103/4/4 104/4/4
f 104/4/4 103/4/4 105/4/4
f 106/2/4 107/2/4 110/2/4
f 110/2/4 107/2/4 111/2/4
f 108/1/4 109/1/4 113/1/4
f 113/1/4 109/1/4 114/1/4
f 111/3/4 112/3/4 115/3/4
f 110/3/4 111/3/4 115/3/4
f 115/3/4 112/3/4 116/3/4
f 117/4/4 118/4/4 119/4/4
f 119/4/4 118/4/4 120/4/4
f 117/4/4 119/4/4 121/4/4
f 120/4/4 118/4/4 122/4/4
f 117/4/4 121/4/4 123/4/4
f 121/4/4 122/4/4 123/4/4
f 122/4/4 118/4/4 124/4/4
f 123/4/4 122/4/4 124/4/4
f 127/4/5 126/4/5 125/4/5
f 128/4/5 126/4/5 127/4/5
f 129/4/5 127/4/5 125/4/5
f 129/1/5 128/1/5 127/1/5
f 130/4/5 126/4/5 128/4/5
f 130/1/5 128/1/5 129/1/5
f 131/4/5 129/4/5 125/4/5
f 131/4/5 130/4/5 129/4/5
f 132/4/5 126/4/5 130/4/5
f 132/4/5 130/4/5 131/4/5
f 135/4/5 134/4/5 133/4/5
f 136/4/5 134/4/5 135/4/5
f 141/4/5 138/4/5 137/4/5
f 142/4/5 138/4/5 141/4/5
f 143/4/5 140/4/5 139/4/5
f 144/4/5 140/4/5 143/4/5
f 147/4/5 146/4/5 145/4/5
f 148/4/5 146/4/5 147/4/5
f 152/2/5 150/2/5 149/2/5
f 153/3/5 151/3/5 150/3/5
f 153/2/5 150/2/5 152/2/5
f 154/3/5 151/3/5 153/3/5
f 155/4/6 156/4/6 157/4/6
f 157/4/6 156/4/6 158/4/6
f 159/4/6 160/4/6 163/4/6
f 163/4/6 160/4/6 164/4/6
f 161/4/6 162/4/6 165/4/6
f 165/4/6 162/4/6 166/4/6
f 167/4/6 168/4/6 169/4/6
f 169/4/6 168/4/6 170/4/6
f 171/1/6 172/1/6 173/1/6
f 173/1/6 172/1/6 174/1/6
f 175/4/6 176/4/6 177/4/6
f 177/4/6 176/4/6 178/4/6
f 178/4/6 176/4/6 179/4/6
f 175/4/6 177/4/6 180/4/6
f 179/4/6 176/4/6 182/4/6
f 180/4/6 181/4/6 183/4/6
f 181/4/6 182/4/6 183/4/6
f 175/4/6 180/4/6 183/4/6
f 182/4/6 176/4/6 184/4/6
f 183/4/6 182/4/6 184/4/6
f 185/2/6 186/2/6 187/2/6
f 187/2/6 186/2/6 188/2/6
f 189/3/6 190/3/6 191/3/6
f 191/3/6 190/3/6 192/3/6
