# MagicaVoxel @ Ephtracy

# group
o 

# material
mtllib chair.mtl
usemtl palette

# normals
vn -1 0 0
vn 1 0 0
vn 0 0 1
vn 0 0 -1
vn 0 -1 0
vn 0 1 0

# texcoords
vt 0.373047 0.5
vt 0.990234 0.5

# verts
v -1.1 0 1.1
v -1.1 0 0.9
v -1.1 0 -0.9
v -1.1 0 -1.1
v -1.1 0.8 0.9
v -1.1 0.8 -0.9
v -1.1 0.9 1.1
v -1.1 0.9 -0.9
v -1.1 3.7 -0.9
v -1.1 3.7 -1.1
v -1 3.7 -0.9
v -1 3.7 -1.1
v -1 3.8 -0.9
v -1 3.8 -1.1
v -0.9 1.2 -0.9
v -0.9 1.2 -1
v -0.9 3.6 -0.9
v -0.9 3.6 -1
v 0.9 0 1.1
v 0.9 0 1
v 0.9 0 0.9
v 0.9 0 -0.9
v 0.9 0 -1
v 0.9 0 -1.1
v 0.9 0.7 -1
v 0.9 0.7 -1.1
v 0.9 0.8 1.1
v 0.9 0.8 1
v 0.9 0.8 0.9
v 0.9 0.8 -0.9
v 0.9 0.8 -1
v 0.9 1 -1
v 0.9 1 -1.1
v 0.9 1.2 -1
v 0.9 3.6 -1
v 0.9 3.6 -1.1
v 1 0.9 -0.9
v 1 0.9 -1
v 1 3.7 -0.9
v 1 3.7 -1
v -1 0.9 -0.9
v -1 0.9 -1
v -1 3.7 -0.9
v -1 3.7 -1
v -0.9 0 1.1
v -0.9 0 1
v -0.9 0 0.9
v -0.9 0 -0.9
v -0.9 0 -1
v -0.9 0 -1.1
v -0.9 0.7 -1
v -0.9 0.7 -1.1
v -0.9 0.8 1.1
v -0.9 0.8 1
v -0.9 0.8 0.9
v -0.9 0.8 -0.9
v -0.9 0.8 -1
v -0.9 1 -1
v -0.9 1 -1.1
v -0.9 1.2 -1
v -0.9 3.6 -1
v -0.9 3.6 -1.1
v 0.9 1.2 -0.9
v 0.9 1.2 -1
v 0.9 3.6 -0.9
v 0.9 3.6 -1
v 1 3.7 -0.9
v 1 3.7 -1.1
v 1 3.8 -0.9
v 1 3.8 -1.1
v 1.1 0 1.1
v 1.1 0 0.9
v 1.1 0 -0.9
v 1.1 0 -1.1
v 1.1 0.8 0.9
v 1.1 0.8 -0.9
v 1.1 0.9 1.1
v 1.1 0.9 -0.9
v 1.1 3.7 -0.9
v 1.1 3.7 -1.1
v -1.1 0 1.1
v -1.1 0.9 1.1
v -0.9 0 1.1
v -0.9 0.8 1.1
v 0.9 0 1.1
v 0.9 0.8 1.1
v 1.1 0 1.1
v 1.1 0.9 1.1
v -1.1 0 -0.9
v -1.1 0.8 -0.9
v -1.1 0.9 -0.9
v -1.1 3.7 -0.9
v -1 0 -0.9
v -1 0.8 -0.9
v -1 0.9 -0.9
v -1 3.7 -0.9
v -1 3.8 -0.9
v -0.9 0 -0.9
v -0.9 0.8 -0.9
v -0.9 1.2 -0.9
v -0.9 3.6 -0.9
v 0.9 0 -0.9
v 0.9 0.8 -0.9
v 0.9 1.2 -0.9
v 0.9 3.6 -0.9
v 1 0 -0.9
v 1 0.8 -0.9
v 1 0.9 -0.9
v 1 3.7 -0.9
v 1 3.8 -0.9
v 1.1 0 -0.9
v 1.1 0.8 -0.9
v 1.1 0.9 -0.9
v 1.1 3.7 -0.9
v -1 0.9 -1
v -1 3.7 -1
v -0.9 0.7 -1
v -0.9 0.8 -1
v -0.9 1 -1
v -0.9 1.2 -1
v -0.9 3.6 -1
v 0.9 0.7 -1
v 0.9 0.8 -1
v 0.9 1 -1
v 0.9 1.2 -1
v 0.9 3.6 -1
v 1 0.9 -1
v 1 3.7 -1
v -1.1 0 0.9
v -1.1 0.8 0.9
v -1 0 0.9
v -1 0.8 0.9
v -0.9 0 0.9
v -0.9 0.8 0.9
v 0.9 0 0.9
v 0.9 0.8 0.9
v 1 0 0.9
v 1 0.8 0.9
v 1.1 0 0.9
v 1.1 0.8 0.9
v -0.9 1.2 -1
v -0.9 3.6 -1
v 0.9 1.2 -1
v 0.9 3.6 -1
v -1.1 0 -1.1
v -1.1 3.7 -1.1
v -1 3.7 -1.1
v -1 3.8 -1.1
v -0.9 0 -1.1
v -0.9 0.7 -1.1
v -0.9 1 -1.1
v -0.9 3.6 -1.1
v 0.9 0 -1.1
v 0.9 0.7 -1.1
v 0.9 1 -1.1
v 0.9 3.6 -1.1
v 1 3.7 -1.1
v 1 3.8 -1.1
v 1.1 0 -1.1
v 1.1 3.7 -1.1
v -1.1 0 1.1
v -0.9 0 1.1
v 0.9 0 1.1
v 1.1 0 1.1
v -1 0 1
v -0.9 0 1
v 0.9 0 1
v 1 0 1
v -1.1 0 0.9
v -1 0 0.9
v -0.9 0 0.9
v 0.9 0 0.9
v 1 0 0.9
v 1.1 0 0.9
v -1.1 0 -0.9
v -1 0 -0.9
v -0.9 0 -0.9
v 0.9 0 -0.9
v 1 0 -0.9
v 1.1 0 -0.9
v -1 0 -1
v -0.9 0 -1
v 0.9 0 -1
v 1 0 -1
v -1.1 0 -1.1
v -0.9 0 -1.1
v 0.9 0 -1.1
v 1.1 0 -1.1
v -0.9 0.7 -1
v 0.9 0.7 -1
v -0.9 0.7 -1.1
v 0.9 0.7 -1.1
v -0.9 0.8 1.1
v 0.9 0.8 1.1
v -0.9 0.8 1
v 0.9 0.8 1
v -1.1 0.8 0.9
v -1 0.8 0.9
v -0.9 0.8 0.9
v 0.9 0.8 0.9
v 1 0.8 0.9
v 1.1 0.8 0.9
v -1.1 0.8 -0.9
v -1 0.8 -0.9
v -0.9 0.8 -0.9
v 0.9 0.8 -0.9
v 1 0.8 -0.9
v 1.1 0.8 -0.9
v -0.9 0.8 -1
v 0.9 0.8 -1
v -0.9 1.2 -0.9
v 0.9 1.2 -0.9
v -0.9 1.2 -1
v 0.9 1.2 -1
v -0.9 3.6 -1
v 0.9 3.6 -1
v -0.9 3.6 -1.1
v 0.9 3.6 -1.1
v -1 3.7 -0.9
v 1 3.7 -0.9
v -1 3.7 -1
v 1 3.7 -1
v -1.1 0.9 1.1
v 1.1 0.9 1.1
v -1 0.9 1
v 1 0.9 1
v -1.1 0.9 -0.9
v -1 0.9 -0.9
v 1 0.9 -0.9
v 1.1 0.9 -0.9
v -1 0.9 -1
v 1 0.9 -1
v -0.9 1 -1
v 0.9 1 -1
v -0.9 1 -1.1
v 0.9 1 -1.1
v -0.9 3.6 -0.9
v 0.9 3.6 -0.9
v -0.9 3.6 -1
v 0.9 3.6 -1
v -1.1 3.7 -0.9
v -1 3.7 -0.9
v 1 3.7 -0.9
v 1.1 3.7 -0.9
v -1.1 3.7 -1.1
v -1 3.7 -1.1
v 1 3.7 -1.1
v 1.1 3.7 -1.1
v -1 3.8 -0.9
v 1 3.8 -0.9
v -1 3.8 -1.1
v 1 3.8 -1.1

# faces
f 5/2/1 2/2/1 1/2/1
f 6/2/1 4/2/1 3/2/1
f 7/2/1 5/2/1 1/2/1
f 7/2/1 6/2/1 5/2/1
f 8/2/1 4/2/1 6/2/1
f 8/2/1 6/2/1 7/2/1
f 9/2/1 4/2/1 8/2/1
f 10/2/1 4/2/1 9/2/1
f 13/2/1 12/2/1 11/2/1
f 14/2/1 12/2/1 13/2/1
f 17/1/1 16/1/1 15/1/1
f 18/1/1 16/1/1 17/1/1
f 25/1/1 23/1/1 22/1/1
f 25/2/1 24/2/1 23/2/1
f 26/2/1 24/2/1 25/2/1
f 27/2/1 20/2/1 19/2/1
f 28/1/1 21/1/1 20/1/1
f 28/2/1 20/2/1 27/2/1
f 29/1/1 21/1/1 28/1/1
f 30/1/1 25/1/1 22/1/1
f 31/1/1 25/1/1 30/1/1
f 34/2/1 33/2/1 32/2/1
f 35/2/1 33/2/1 34/2/1
f 36/2/1 33/2/1 35/2/1
f 39/2/1 38/2/1 37/2/1
f 40/2/1 38/2/1 39/2/1
f 41/2/2 42/2/2 43/2/2
f 43/2/2 42/2/2 44/2/2
f 48/1/2 49/1/2 51/1/2
f 49/2/2 50/2/2 51/2/2
f 51/2/2 50/2/2 52/2/2
f 45/2/2 46/2/2 53/2/2
f 46/1/2 47/1/2 54/1/2
f 53/2/2 46/2/2 54/2/2
f 54/1/2 47/1/2 55/1/2
f 48/1/2 51/1/2 56/1/2
f 56/1/2 51/1/2 57/1/2
f 58/2/2 59/2/2 60/2/2
f 60/2/2 59/2/2 61/2/2
f 61/2/2 59/2/2 62/2/2
f 63/1/2 64/1/2 65/1/2
f 65/1/2 64/1/2 66/1/2
f 67/2/2 68/2/2 69/2/2
f 69/2/2 68/2/2 70/2/2
f 71/2/2 72/2/2 75/2/2
f 73/2/2 74/2/2 76/2/2
f 71/2/2 75/2/2 77/2/2
f 75/2/2 76/2/2 77/2/2
f 76/2/2 74/2/2 78/2/2
f 77/2/2 76/2/2 78/2/2
f 78/2/2 74/2/2 79/2/2
f 79/2/2 74/2/2 80/2/2
f 83/2/3 82/2/3 81/2/3
f 84/2/3 82/2/3 83/2/3
f 86/2/3 82/2/3 84/2/3
f 87/2/3 86/2/3 85/2/3
f 88/2/3 82/2/3 86/2/3
f 88/2/3 86/2/3 87/2/3
f 93/2/3 90/2/3 89/2/3
f 94/2/3 90/2/3 93/2/3
f 95/2/3 92/2/3 91/2/3
f 96/2/3 92/2/3 95/2/3
f 98/1/3 94/1/3 93/1/3
f 99/1/3 94/1/3 98/1/3
f 104/1/3 101/1/3 100/1/3
f 105/1/3 101/1/3 104/1/3
f 106/1/3 103/1/3 102/1/3
f 107/1/3 103/1/3 106/1/3
f 109/2/3 97/2/3 96/2/3
f 110/2/3 97/2/3 109/2/3
f 111/2/3 107/2/3 106/2/3
f 112/2/3 107/2/3 111/2/3
f 113/2/3 109/2/3 108/2/3
f 114/2/3 109/2/3 113/2/3
f 119/2/3 116/2/3 115/2/3
f 120/2/3 116/2/3 119/2/3
f 121/2/3 116/2/3 120/2/3
f 122/2/3 118/2/3 117/2/3
f 123/2/3 118/2/3 122/2/3
f 124/2/3 119/2/3 115/2/3
f 126/2/3 116/2/3 121/2/3
f 127/2/3 125/2/3 124/2/3
f 127/2/3 126/2/3 125/2/3
f 127/2/3 124/2/3 115/2/3
f 128/2/3 116/2/3 126/2/3
f 128/2/3 126/2/3 127/2/3
f 129/2/4 130/2/4 131/2/4
f 131/2/4 130/2/4 132/2/4
f 131/1/4 132/1/4 133/1/4
f 133/1/4 132/1/4 134/1/4
f 135/1/4 136/1/4 137/1/4
f 137/1/4 136/1/4 138/1/4
f 137/2/4 138/2/4 139/2/4
f 139/2/4 138/2/4 140/2/4
f 141/1/4 142/1/4 143/1/4
f 143/1/4 142/1/4 144/1/4
f 145/2/4 146/2/4 147/2/4
f 145/2/4 147/2/4 149/2/4
f 147/2/4 148/2/4 149/2/4
f 149/2/4 148/2/4 150/2/4
f 150/2/4 148/2/4 151/2/4
f 151/2/4 148/2/4 152/2/4
f 150/2/4 151/2/4 154/2/4
f 154/2/4 151/2/4 155/2/4
f 152/2/4 148/2/4 156/2/4
f 154/2/4 155/2/4 157/2/4
f 155/2/4 156/2/4 157/2/4
f 156/2/4 148/2/4 157/2/4
f 153/2/4 154/2/4 157/2/4
f 157/2/4 148/2/4 158/2/4
f 153/2/4 157/2/4 159/2/4
f 159/2/4 157/2/4 160/2/4
f 165/2/5 162/2/5 161/2/5
f 166/2/5 162/2/5 165/2/5
f 167/2/5 164/2/5 163/2/5
f 168/2/5 164/2/5 167/2/5
f 169/2/5 165/2/5 161/2/5
f 170/1/5 166/1/5 165/1/5
f 170/2/5 165/2/5 169/2/5
f 171/1/5 166/1/5 170/1/5
f 172/1/5 168/1/5 167/1/5
f 173/2/5 164/2/5 168/2/5
f 173/1/5 168/1/5 172/1/5
f 174/2/5 164/2/5 173/2/5
f 181/2/5 176/2/5 175/2/5
f 181/1/5 177/1/5 176/1/5
f 182/1/5 177/1/5 181/1/5
f 183/1/5 179/1/5 178/1/5
f 184/2/5 180/2/5 179/2/5
f 184/1/5 179/1/5 183/1/5
f 185/2/5 182/2/5 181/2/5
f 185/2/5 181/2/5 175/2/5
f 186/2/5 182/2/5 185/2/5
f 187/2/5 184/2/5 183/2/5
f 188/2/5 180/2/5 184/2/5
f 188/2/5 184/2/5 187/2/5
f 191/2/5 190/2/5 189/2/5
f 192/2/5 190/2/5 191/2/5
f 195/2/5 194/2/5 193/2/5
f 196/2/5 194/2/5 195/2/5
f 199/1/5 196/1/5 195/1/5
f 200/1/5 196/1/5 199/1/5
f 203/2/5 198/2/5 197/2/5
f 204/1/5 200/1/5 199/1/5
f 204/2/5 198/2/5 203/2/5
f 204/1/5 199/1/5 198/1/5
f 204/1/5 201/1/5 200/1/5
f 205/1/5 201/1/5 204/1/5
f 206/1/5 201/1/5 205/1/5
f 207/2/5 202/2/5 201/2/5
f 207/1/5 201/1/5 206/1/5
f 208/2/5 202/2/5 207/2/5
f 209/1/5 206/1/5 205/1/5
f 210/1/5 206/1/5 209/1/5
f 213/1/5 212/1/5 211/1/5
f 214/1/5 212/1/5 213/1/5
f 217/2/5 216/2/5 215/2/5
f 218/2/5 216/2/5 217/2/5
f 221/2/5 220/2/5 219/2/5
f 222/2/5 220/2/5 221/2/5
f 223/2/6 224/2/6 225/2/6
f 225/2/6 224/2/6 226/2/6
f 223/2/6 225/2/6 227/2/6
f 225/1/6 226/1/6 228/1/6
f 227/2/6 225/2/6 228/2/6
f 226/2/6 224/2/6 229/2/6
f 228/1/6 226/1/6 229/1/6
f 229/2/6 224/2/6 230/2/6
f 228/1/6 229/1/6 231/1/6
f 231/1/6 229/1/6 232/1/6
f 233/2/6 234/2/6 235/2/6
f 235/2/6 234/2/6 236/2/6
f 237/1/6 238/1/6 239/1/6
f 239/1/6 238/1/6 240/1/6
f 241/2/6 242/2/6 245/2/6
f 245/2/6 242/2/6 246/2/6
f 243/2/6 244/2/6 247/2/6
f 247/2/6 244/2/6 248/2/6
f 249/2/6 250/2/6 251/2/6
f 251/2/6 250/2/6 252/2/6
