# MagicaVoxel @ Ephtracy

# group
o 

# material
mtllib machenike1.mtl
usemtl palette

# normals
vn -1 0 0
vn 1 0 0
vn 0 0 1
vn 0 0 -1
vn 0 -1 0
vn 0 1 0

# texcoords
vt 0.861328 0.5
vt 0.873047 0.5
vt 0.990234 0.5
vt 0.994141 0.5

# verts
v -2 0 2
v -2 0 -1.4
v -2 1.6 -1.4
v -2 1.6 -1.5
v -2 1.7 -1.5
v -2 1.7 -1.6
v -2 1.8 -1.6
v -2 1.8 -1.7
v -2 1.9 -1.7
v -2 1.9 -1.8
v -2 2.4 -0.7
v -2 2.4 -1.8
v -2 6.6 -0.7
v -2 6.6 -1.3
v -2 7 2
v -2 7 -1.3
v -1.8 0.1 -1.3
v -1.8 0.1 -1.4
v -1.8 0.6 -1.3
v -1.8 0.6 -1.4
v -1.8 6.5 -0.4
v -1.8 6.5 -0.7
v -1.8 6.6 -0.4
v -1.8 6.6 -0.7
v -1.2 0.2 2
v -1.2 0.2 1.9
v -1.2 1 2
v -1.2 1 1.9
v 1.6 3.5 -0.3
v 1.6 3.5 -0.4
v 1.6 6.3 -0.3
v 1.6 6.3 -0.4
v 1.9 0 -1.3
v 1.9 0 -1.4
v 1.9 1.5 -1.3
v 1.9 1.5 -1.4
v 1.9 2.2 -0.4
v 1.9 2.2 -1.8
v 1.9 2.4 -0.7
v 1.9 2.4 -1.8
v 1.9 6.5 -0.4
v 1.9 6.5 -0.7
v -1.9 0 -1.3
v -1.9 0 -1.4
v -1.9 1.5 -1.3
v -1.9 1.5 -1.4
v -1.9 2.2 -0.4
v -1.9 2.2 -1.8
v -1.9 2.4 -0.7
v -1.9 2.4 -1.8
v -1.9 6.6 -0.4
v -1.9 6.6 -0.7
v -1.6 0.2 2
v -1.6 0.2 1.9
v -1.6 1 2
v -1.6 1 1.9
v -1.6 3.5 -0.3
v -1.6 3.5 -0.4
v -1.6 6.3 -0.3
v -1.6 6.3 -0.4
v -1.5 0.1 -1.3
v -1.5 0.1 -1.4
v -1.5 0.6 -1.3
v -1.5 0.6 -1.4
v 2 0 2
v 2 0 -1.4
v 2 1.6 -1.4
v 2 1.6 -1.5
v 2 1.7 -1.5
v 2 1.7 -1.6
v 2 1.8 -1.6
v 2 1.8 -1.7
v 2 1.9 -1.7
v 2 1.9 -1.8
v 2 2.4 -0.7
v 2 2.4 -1.8
v 2 6.6 -0.7
v 2 6.6 -1.3
v 2 7 2
v 2 7 -1.3
v -2 0 2
v -2 7 2
v -1.9 6.9 2
v -1.9 7 2
v -1.6 0.2 2
v -1.6 1 2
v -1.2 0.2 2
v -1.2 1 2
v 1.9 6.9 2
v 1.9 7 2
v 2 0 2
v 2 7 2
v -1.6 0.2 1.9
v -1.6 1 1.9
v -1.2 0.2 1.9
v -1.2 1 1.9
v -1.6 3.5 -0.3
v -1.6 6.3 -0.3
v 1.6 3.5 -0.3
v 1.6 6.3 -0.3
v -1.9 2.2 -0.4
v -1.9 6.6 -0.4
v -1.8 6.5 -0.4
v -1.8 6.6 -0.4
v -1.6 3.5 -0.4
v -1.6 6.3 -0.4
v -1.4 3.2 -0.4
v -1.4 3.3 -0.4
v -0.9 3.2 -0.4
v -0.9 3.3 -0.4
v -0.4 3.2 -0.4
v -0.4 3.3 -0.4
v 0.4 3.2 -0.4
v 0.4 3.3 -0.4
v 1 3.2 -0.4
v 1 3.3 -0.4
v 1.5 3.2 -0.4
v 1.5 3.3 -0.4
v 1.6 3.5 -0.4
v 1.6 6.3 -0.4
v 1.9 2.2 -0.4
v 1.9 6.5 -0.4
v -2 2.4 -0.7
v -2 6.6 -0.7
v -1.9 2.4 -0.7
v -1.9 6.6 -0.7
v -1.8 6.5 -0.7
v -1.8 6.6 -0.7
v 1.9 2.4 -0.7
v 1.9 6.5 -0.7
v 1.9 6.6 -0.7
v 2 2.4 -0.7
v 2 6.6 -0.7
v -2 6.6 -1.3
v -2 7 -1.3
v -1.9 0 -1.3
v -1.9 1.5 -1.3
v -1.9 6.6 -1.3
v -1.9 7 -1.3
v -1.8 0.1 -1.3
v -1.8 0.6 -1.3
v -1.5 0.1 -1.3
v -1.5 0.6 -1.3
v 1.9 0 -1.3
v 1.9 1.5 -1.3
v 1.9 6.6 -1.3
v 1.9 7 -1.3
v 2 6.6 -1.3
v 2 7 -1.3
v -2 0 -1.4
v -2 1.6 -1.4
v -1.9 0 -1.4
v -1.9 1.5 -1.4
v -1.9 1.6 -1.4
v -1.8 0.1 -1.4
v -1.8 0.6 -1.4
v -1.5 0.1 -1.4
v -1.5 0.6 -1.4
v 1.9 0 -1.4
v 1.9 1.5 -1.4
v 1.9 1.6 -1.4
v 2 0 -1.4
v 2 1.6 -1.4
v -2 1.6 -1.5
v -2 1.7 -1.5
v -1.9 1.6 -1.5
v -1.9 1.7 -1.5
v 1.9 1.6 -1.5
v 1.9 1.7 -1.5
v 2 1.6 -1.5
v 2 1.7 -1.5
v -2 1.7 -1.6
v -2 1.8 -1.6
v -1.9 1.7 -1.6
v -1.9 1.8 -1.6
v 1.9 1.7 -1.6
v 1.9 1.8 -1.6
v 2 1.7 -1.6
v 2 1.8 -1.6
v -2 1.8 -1.7
v -2 1.9 -1.7
v -1.9 1.8 -1.7
v -1.9 1.9 -1.7
v 1.9 1.8 -1.7
v 1.9 1.9 -1.7
v 2 1.8 -1.7
v 2 1.9 -1.7
v -2 1.9 -1.8
v -2 2.4 -1.8
v -1.9 1.9 -1.8
v -1.9 2.2 -1.8
v -1.9 2.4 -1.8
v 1.9 1.9 -1.8
v 1.9 2.2 -1.8
v 1.9 2.4 -1.8
v 2 1.9 -1.8
v 2 2.4 -1.8
v -2 0 2
v 2 0 2
v -1.9 0 -1.2
v 1.9 0 -1.2
v -1.9 0 -1.3
v 1.9 0 -1.3
v -2 0 -1.4
v -1.9 0 -1.4
v 1.9 0 -1.4
v 2 0 -1.4
v -1.8 0.1 -1.3
v -1.5 0.1 -1.3
v -1.8 0.1 -1.4
v -1.5 0.1 -1.4
v -1.6 1 2
v -1.2 1 2
v -1.6 1 1.9
v -1.2 1 1.9
v -1.9 1.5 -1.3
v 1.9 1.5 -1.3
v -1.9 1.5 -1.4
v 1.9 1.5 -1.4
v -2 1.6 -1.4
v -1.9 1.6 -1.4
v 1.9 1.6 -1.4
v 2 1.6 -1.4
v -2 1.6 -1.5
v -1.9 1.6 -1.5
v 1.9 1.6 -1.5
v 2 1.6 -1.5
v -2 1.7 -1.5
v -1.9 1.7 -1.5
v 1.9 1.7 -1.5
v 2 1.7 -1.5
v -2 1.7 -1.6
v -1.9 1.7 -1.6
v 1.9 1.7 -1.6
v 2 1.7 -1.6
v -2 1.8 -1.6
v -1.9 1.8 -1.6
v 1.9 1.8 -1.6
v 2 1.8 -1.6
v -2 1.8 -1.7
v -1.9 1.8 -1.7
v 1.9 1.8 -1.7
v 2 1.8 -1.7
v -2 1.9 -1.7
v -1.9 1.9 -1.7
v 1.9 1.9 -1.7
v 2 1.9 -1.7
v -2 1.9 -1.8
v -1.9 1.9 -1.8
v 1.9 1.9 -1.8
v 2 1.9 -1.8
v -1.6 6.3 -0.3
v 1.6 6.3 -0.3
v -1.6 6.3 -0.4
v 1.6 6.3 -0.4
v -1.8 6.5 -0.4
v 1.9 6.5 -0.4
v -1.8 6.5 -0.7
v 1.9 6.5 -0.7
v -1.9 6.6 -0.4
v -1.8 6.6 -0.4
v -2 6.6 -0.7
v -1.9 6.6 -0.7
v -1.8 6.6 -0.7
v 1.9 6.6 -0.7
v 2 6.6 -0.7
v -2 6.6 -1.3
v -1.9 6.6 -1.3
v 1.9 6.6 -1.3
v 2 6.6 -1.3
v -1.6 0.2 2
v -1.2 0.2 2
v -1.6 0.2 1.9
v -1.2 0.2 1.9
v -1.8 0.6 -1.3
v -1.5 0.6 -1.3
v -1.8 0.6 -1.4
v -1.5 0.6 -1.4
v -1.9 2.2 -0.4
v 1.9 2.2 -0.4
v -1.9 2.2 -1.8
v 1.9 2.2 -1.8
v -2 2.4 -0.7
v -1.9 2.4 -0.7
v 1.9 2.4 -0.7
v 2 2.4 -0.7
v -2 2.4 -1.8
v -1.9 2.4 -1.8
v 1.9 2.4 -1.8
v 2 2.4 -1.8
v -1.6 3.5 -0.3
v 1.6 3.5 -0.3
v -1.6 3.5 -0.4
v 1.6 3.5 -0.4
v -2 7 2
v -1.9 7 2
v 1.9 7 2
v 2 7 2
v -2 7 -1.3
v -1.9 7 -1.3
v 1.9 7 -1.3
v 2 7 -1.3

# faces
f 3/1/1 2/1/1 1/1/1
f 5/1/1 4/1/1 3/1/1
f 7/1/1 6/1/1 5/1/1
f 9/1/1 8/1/1 7/1/1
f 11/1/1 3/1/1 1/1/1
f 11/1/1 10/1/1 9/1/1
f 11/1/1 9/1/1 7/1/1
f 11/1/1 7/1/1 5/1/1
f 11/1/1 5/1/1 3/1/1
f 12/1/1 10/1/1 11/1/1
f 13/1/1 11/1/1 1/1/1
f 15/1/1 13/1/1 1/1/1
f 15/1/1 14/1/1 13/1/1
f 16/1/1 14/1/1 15/1/1
f 19/4/1 18/4/1 17/4/1
f 20/4/1 18/4/1 19/4/1
f 23/3/1 22/3/1 21/3/1
f 24/3/1 22/3/1 23/3/1
f 27/1/1 26/1/1 25/1/1
f 28/1/1 26/1/1 27/1/1
f 31/3/1 30/3/1 29/3/1
f 32/3/1 30/3/1 31/3/1
f 35/1/1 34/1/1 33/1/1
f 36/1/1 34/1/1 35/1/1
f 39/1/1 38/1/1 37/1/1
f 40/1/1 38/1/1 39/1/1
f 41/1/1 39/1/1 37/1/1
f 42/1/1 39/1/1 41/1/1
f 43/1/2 44/1/2 45/1/2
f 45/1/2 44/1/2 46/1/2
f 47/1/2 48/1/2 49/1/2
f 49/1/2 48/1/2 50/1/2
f 47/1/2 49/1/2 51/1/2
f 51/1/2 49/1/2 52/1/2
f 53/1/2 54/1/2 55/1/2
f 55/1/2 54/1/2 56/1/2
f 57/3/2 58/3/2 59/3/2
f 59/3/2 58/3/2 60/3/2
f 61/4/2 62/4/2 63/4/2
f 63/4/2 62/4/2 64/4/2
f 65/1/2 66/1/2 67/1/2
f 67/1/2 68/1/2 69/1/2
f 69/1/2 70/1/2 71/1/2
f 71/1/2 72/1/2 73/1/2
f 65/1/2 67/1/2 75/1/2
f 73/1/2 74/1/2 75/1/2
f 71/1/2 73/1/2 75/1/2
f 69/1/2 71/1/2 75/1/2
f 67/1/2 69/1/2 75/1/2
f 75/1/2 74/1/2 76/1/2
f 65/1/2 75/1/2 77/1/2
f 65/1/2 77/1/2 79/1/2
f 77/1/2 78/1/2 79/1/2
f 79/1/2 78/1/2 80/1/2
f 83/1/3 82/1/3 81/1/3
f 84/1/3 82/1/3 83/1/3
f 85/1/3 83/1/3 81/1/3
f 86/1/3 83/1/3 85/1/3
f 87/1/3 85/1/3 81/1/3
f 88/1/3 83/1/3 86/1/3
f 89/3/3 84/3/3 83/3/3
f 89/1/3 88/1/3 87/1/3
f 89/1/3 83/1/3 88/1/3
f 90/3/3 84/3/3 89/3/3
f 91/1/3 87/1/3 81/1/3
f 91/1/3 89/1/3 87/1/3
f 91/1/3 90/1/3 89/1/3
f 92/1/3 90/1/3 91/1/3
f 95/2/3 94/2/3 93/2/3
f 96/2/3 94/2/3 95/2/3
f 97/4/4 98/4/4 99/4/4
f 99/4/4 98/4/4 100/4/4
f 101/3/4 102/3/4 103/3/4
f 103/3/4 102/3/4 104/3/4
f 101/3/4 103/3/4 105/3/4
f 105/3/4 103/3/4 106/3/4
f 101/3/4 105/3/4 107/3/4
f 107/3/4 105/3/4 108/3/4
f 101/3/4 107/3/4 109/3/4
f 107/4/4 108/4/4 109/4/4
f 108/3/4 105/3/4 110/3/4
f 109/4/4 108/4/4 110/4/4
f 101/3/4 109/3/4 111/3/4
f 109/3/4 110/3/4 111/3/4
f 110/3/4 105/3/4 112/3/4
f 111/3/4 110/3/4 112/3/4
f 101/3/4 111/3/4 113/3/4
f 111/4/4 112/4/4 113/4/4
f 112/3/4 105/3/4 114/3/4
f 113/4/4 112/4/4 114/4/4
f 101/3/4 113/3/4 115/3/4
f 113/3/4 114/3/4 115/3/4
f 114/3/4 105/3/4 116/3/4
f 115/3/4 114/3/4 116/3/4
f 101/3/4 115/3/4 117/3/4
f 115/4/4 116/4/4 117/4/4
f 116/3/4 105/3/4 118/3/4
f 117/4/4 116/4/4 118/4/4
f 117/3/4 118/3/4 119/3/4
f 118/3/4 105/3/4 119/3/4
f 106/3/4 103/3/4 120/3/4
f 117/3/4 119/3/4 121/3/4
f 119/3/4 120/3/4 121/3/4
f 101/3/4 117/3/4 121/3/4
f 120/3/4 103/3/4 122/3/4
f 121/3/4 120/3/4 122/3/4
f 123/1/4 124/1/4 125/1/4
f 125/1/4 124/1/4 126/1/4
f 127/3/4 128/3/4 130/3/4
f 130/3/4 128/3/4 131/3/4
f 129/1/4 130/1/4 132/1/4
f 130/1/4 131/1/4 132/1/4
f 132/1/4 131/1/4 133/1/4
f 134/1/4 135/1/4 138/1/4
f 138/1/4 135/1/4 139/1/4
f 136/3/4 137/3/4 140/3/4
f 140/3/4 137/3/4 141/3/4
f 136/3/4 140/3/4 142/3/4
f 141/3/4 137/3/4 143/3/4
f 136/3/4 142/3/4 144/3/4
f 142/3/4 143/3/4 144/3/4
f 143/3/4 137/3/4 145/3/4
f 144/3/4 143/3/4 145/3/4
f 138/3/4 139/3/4 146/3/4
f 146/3/4 139/3/4 147/3/4
f 146/1/4 147/1/4 148/1/4
f 148/1/4 147/1/4 149/1/4
f 150/1/4 151/1/4 152/1/4
f 152/1/4 151/1/4 153/1/4
f 153/1/4 151/1/4 154/1/4
f 155/4/4 156/4/4 157/4/4
f 157/4/4 156/4/4 158/4/4
f 153/3/4 154/3/4 160/3/4
f 160/3/4 154/3/4 161/3/4
f 159/1/4 160/1/4 162/1/4
f 160/1/4 161/1/4 162/1/4
f 162/1/4 161/1/4 163/1/4
f 164/1/4 165/1/4 166/1/4
f 166/1/4 165/1/4 167/1/4
f 166/3/4 167/3/4 168/3/4
f 168/3/4 167/3/4 169/3/4
f 168/1/4 169/1/4 170/1/4
f 170/1/4 169/1/4 171/1/4
f 172/1/4 173/1/4 174/1/4
f 174/1/4 173/1/4 175/1/4
f 174/3/4 175/3/4 176/3/4
f 176/3/4 175/3/4 177/3/4
f 176/1/4 177/1/4 178/1/4
f 178/1/4 177/1/4 179/1/4
f 180/1/4 181/1/4 182/1/4
f 182/1/4 181/1/4 183/1/4
f 182/3/4 183/3/4 184/3/4
f 184/3/4 183/3/4 185/3/4
f 184/1/4 185/1/4 186/1/4
f 186/1/4 185/1/4 187/1/4
f 188/1/4 189/1/4 190/1/4
f 190/1/4 189/1/4 191/1/4
f 191/1/4 189/1/4 192/1/4
f 190/3/4 191/3/4 193/3/4
f 193/3/4 191/3/4 194/3/4
f 193/1/4 194/1/4 196/1/4
f 194/1/4 195/1/4 196/1/4
f 196/1/4 195/1/4 197/1/4
f 200/1/5 199/1/5 198/1/5
f 201/1/5 199/1/5 200/1/5
f 202/1/5 200/1/5 198/1/5
f 202/3/5 201/3/5 200/3/5
f 203/1/5 199/1/5 201/1/5
f 203/3/5 201/3/5 202/3/5
f 204/1/5 202/1/5 198/1/5
f 205/1/5 202/1/5 204/1/5
f 206/1/5 199/1/5 203/1/5
f 207/1/5 199/1/5 206/1/5
f 210/4/5 209/4/5 208/4/5
f 211/4/5 209/4/5 210/4/5
f 214/1/5 213/1/5 212/1/5
f 215/1/5 213/1/5 214/1/5
f 218/3/5 217/3/5 216/3/5
f 219/3/5 217/3/5 218/3/5
f 224/1/5 221/1/5 220/1/5
f 225/3/5 222/3/5 221/3/5
f 225/1/5 221/1/5 224/1/5
f 226/1/5 223/1/5 222/1/5
f 226/3/5 222/3/5 225/3/5
f 227/1/5 223/1/5 226/1/5
f 232/1/5 229/1/5 228/1/5
f 233/3/5 230/3/5 229/3/5
f 233/1/5 229/1/5 232/1/5
f 234/1/5 231/1/5 230/1/5
f 234/3/5 230/3/5 233/3/5
f 235/1/5 231/1/5 234/1/5
f 240/1/5 237/1/5 236/1/5
f 241/3/5 238/3/5 237/3/5
f 241/1/5 237/1/5 240/1/5
f 242/1/5 239/1/5 238/1/5
f 242/3/5 238/3/5 241/3/5
f 243/1/5 239/1/5 242/1/5
f 248/1/5 245/1/5 244/1/5
f 249/3/5 246/3/5 245/3/5
f 249/1/5 245/1/5 248/1/5
f 250/1/5 247/1/5 246/1/5
f 250/3/5 246/3/5 249/3/5
f 251/1/5 247/1/5 250/1/5
f 254/3/5 253/3/5 252/3/5
f 255/3/5 253/3/5 254/3/5
f 258/3/5 257/3/5 256/3/5
f 259/3/5 257/3/5 258/3/5
f 263/3/5 261/3/5 260/3/5
f 264/3/5 261/3/5 263/3/5
f 267/1/5 263/1/5 262/1/5
f 268/3/5 264/3/5 263/3/5
f 268/1/5 263/1/5 267/1/5
f 268/3/5 265/3/5 264/3/5
f 269/1/5 266/1/5 265/1/5
f 269/3/5 265/3/5 268/3/5
f 270/1/5 266/1/5 269/1/5
f 271/1/6 272/1/6 273/1/6
f 273/1/6 272/1/6 274/1/6
f 275/4/6 276/4/6 277/4/6
f 277/4/6 276/4/6 278/4/6
f 279/3/6 280/3/6 281/3/6
f 281/3/6 280/3/6 282/3/6
f 283/1/6 284/1/6 287/1/6
f 287/1/6 284/1/6 288/1/6
f 285/1/6 286/1/6 289/1/6
f 289/1/6 286/1/6 290/1/6
f 291/3/6 292/3/6 293/3/6
f 293/3/6 292/3/6 294/3/6
f 295/1/6 296/1/6 299/1/6
f 296/3/6 297/3/6 300/3/6
f 299/1/6 296/1/6 300/1/6
f 297/1/6 298/1/6 301/1/6
f 300/3/6 297/3/6 301/3/6
f 301/1/6 298/1/6 302/1/6
